SplineFontDB: 3.2
FontName: Teoran Standard
FullName: Teoran Standard
FamilyName: Teoran
Weight: Regular
Copyright: Copyright (c) 2022, Unknown
UComments: "2022-2-13: Created with FontForge (http://fontforge.org)"
Version: 001.000
ItalicAngle: 0
UnderlinePosition: -100
UnderlineWidth: 50
Ascent: 800
Descent: 200
InvalidEm: 0
LayerCount: 2
Layer: 0 0 "Back" 1
Layer: 1 0 "Fore" 0
XUID: [1021 482 -664731149 4218393]
StyleMap: 0x0000
FSType: 0
OS2Version: 0
OS2_WeightWidthSlopeOnly: 0
OS2_UseTypoMetrics: 1
CreationTime: 1644764433
ModificationTime: 1644764433
OS2TypoAscent: 0
OS2TypoAOffset: 1
OS2TypoDescent: 0
OS2TypoDOffset: 1
OS2TypoLinegap: 90
OS2WinAscent: 0
OS2WinAOffset: 1
OS2WinDescent: 0
OS2WinDOffset: 1
HheadAscent: 0
HheadAOffset: 1
HheadDescent: 0
HheadDOffset: 1
DEI: 91125
Encoding: UnicodeFull
UnicodeInterp: none
NameList: AGL For New Fonts
DisplaySize: -48
AntiAlias: 1
FitToEm: 0
BeginChars: 1114112 71

StartChar: a
Encoding: 97 97 0
Width: 1000
Flags: H
LayerCount: 2
Fore
SplineSet
0 672 m 1
 0 800 l 1
 128 800 l 1
 128 672 l 1
 0 672 l 1
256 672 m 1
 256 800 l 1
 384 800 l 1
 384 672 l 1
 256 672 l 1
512 672 m 1
 512 800 l 1
 640 800 l 1
 640 672 l 1
 512 672 l 1
0 544 m 1
 0 672 l 1
 128 672 l 1
 128 544 l 1
 0 544 l 1
256 544 m 1
 256 672 l 1
 384 672 l 1
 384 544 l 1
 256 544 l 1
512 544 m 1
 512 672 l 1
 640 672 l 1
 640 544 l 1
 512 544 l 1
0 416 m 1
 0 544 l 1
 128 544 l 1
 128 416 l 1
 0 416 l 1
512 416 m 1
 512 544 l 1
 640 544 l 1
 640 416 l 1
 512 416 l 1
0 288 m 1
 0 416 l 1
 128 416 l 1
 128 288 l 1
 0 288 l 1
512 288 m 1
 512 416 l 1
 640 416 l 1
 640 288 l 1
 512 288 l 1
0 160 m 1
 0 288 l 1
 128 288 l 1
 128 160 l 1
 0 160 l 1
128 160 m 1
 128 288 l 1
 256 288 l 1
 256 160 l 1
 128 160 l 1
256 160 m 1
 256 288 l 1
 384 288 l 1
 384 160 l 1
 256 160 l 1
384 160 m 1
 384 288 l 1
 512 288 l 1
 512 160 l 1
 384 160 l 1
512 160 m 1
 512 288 l 1
 640 288 l 1
 640 160 l 1
 512 160 l 1
EndSplineSet
EndChar

StartChar: b
Encoding: 98 98 1
Width: 1000
Flags: H
LayerCount: 2
Fore
SplineSet
0 672 m 1
 0 800 l 1
 128 800 l 1
 128 672 l 1
 0 672 l 1
128 672 m 1
 128 800 l 1
 256 800 l 1
 256 672 l 1
 128 672 l 1
256 672 m 1
 256 800 l 1
 384 800 l 1
 384 672 l 1
 256 672 l 1
384 672 m 1
 384 800 l 1
 512 800 l 1
 512 672 l 1
 384 672 l 1
512 672 m 1
 512 800 l 1
 640 800 l 1
 640 672 l 1
 512 672 l 1
0 544 m 1
 0 672 l 1
 128 672 l 1
 128 544 l 1
 0 544 l 1
512 544 m 1
 512 672 l 1
 640 672 l 1
 640 544 l 1
 512 544 l 1
0 416 m 1
 0 544 l 1
 128 544 l 1
 128 416 l 1
 0 416 l 1
128 416 m 1
 128 544 l 1
 256 544 l 1
 256 416 l 1
 128 416 l 1
256 416 m 1
 256 544 l 1
 384 544 l 1
 384 416 l 1
 256 416 l 1
384 416 m 1
 384 544 l 1
 512 544 l 1
 512 416 l 1
 384 416 l 1
512 416 m 1
 512 544 l 1
 640 544 l 1
 640 416 l 1
 512 416 l 1
0 288 m 1
 0 416 l 1
 128 416 l 1
 128 288 l 1
 0 288 l 1
512 288 m 1
 512 416 l 1
 640 416 l 1
 640 288 l 1
 512 288 l 1
0 160 m 1
 0 288 l 1
 128 288 l 1
 128 160 l 1
 0 160 l 1
128 160 m 1
 128 288 l 1
 256 288 l 1
 256 160 l 1
 128 160 l 1
256 160 m 1
 256 288 l 1
 384 288 l 1
 384 160 l 1
 256 160 l 1
384 160 m 1
 384 288 l 1
 512 288 l 1
 512 160 l 1
 384 160 l 1
512 160 m 1
 512 288 l 1
 640 288 l 1
 640 160 l 1
 512 160 l 1
EndSplineSet
EndChar

StartChar: c
Encoding: 99 99 2
Width: 1000
Flags: H
LayerCount: 2
Fore
SplineSet
0 672 m 1
 0 800 l 1
 128 800 l 1
 128 672 l 1
 0 672 l 1
128 672 m 1
 128 800 l 1
 256 800 l 1
 256 672 l 1
 128 672 l 1
256 672 m 1
 256 800 l 1
 384 800 l 1
 384 672 l 1
 256 672 l 1
384 672 m 1
 384 800 l 1
 512 800 l 1
 512 672 l 1
 384 672 l 1
512 672 m 1
 512 800 l 1
 640 800 l 1
 640 672 l 1
 512 672 l 1
512 544 m 1
 512 672 l 1
 640 672 l 1
 640 544 l 1
 512 544 l 1
512 416 m 1
 512 544 l 1
 640 544 l 1
 640 416 l 1
 512 416 l 1
0 160 m 1
 0 288 l 1
 128 288 l 1
 128 160 l 1
 0 160 l 1
128 160 m 1
 128 288 l 1
 256 288 l 1
 256 160 l 1
 128 160 l 1
256 160 m 1
 256 288 l 1
 384 288 l 1
 384 160 l 1
 256 160 l 1
384 160 m 1
 384 288 l 1
 512 288 l 1
 512 160 l 1
 384 160 l 1
512 160 m 1
 512 288 l 1
 640 288 l 1
 640 160 l 1
 512 160 l 1
EndSplineSet
EndChar

StartChar: d
Encoding: 100 100 3
Width: 1000
Flags: H
LayerCount: 2
Fore
SplineSet
0 672 m 1
 0 800 l 1
 128 800 l 1
 128 672 l 1
 0 672 l 1
128 672 m 1
 128 800 l 1
 256 800 l 1
 256 672 l 1
 128 672 l 1
256 672 m 1
 256 800 l 1
 384 800 l 1
 384 672 l 1
 256 672 l 1
384 672 m 1
 384 800 l 1
 512 800 l 1
 512 672 l 1
 384 672 l 1
512 672 m 1
 512 800 l 1
 640 800 l 1
 640 672 l 1
 512 672 l 1
0 544 m 1
 0 672 l 1
 128 672 l 1
 128 544 l 1
 0 544 l 1
0 416 m 1
 0 544 l 1
 128 544 l 1
 128 416 l 1
 0 416 l 1
0 288 m 1
 0 416 l 1
 128 416 l 1
 128 288 l 1
 0 288 l 1
0 160 m 1
 0 288 l 1
 128 288 l 1
 128 160 l 1
 0 160 l 1
128 160 m 1
 128 288 l 1
 256 288 l 1
 256 160 l 1
 128 160 l 1
256 160 m 1
 256 288 l 1
 384 288 l 1
 384 160 l 1
 256 160 l 1
384 160 m 1
 384 288 l 1
 512 288 l 1
 512 160 l 1
 384 160 l 1
512 160 m 1
 512 288 l 1
 640 288 l 1
 640 160 l 1
 512 160 l 1
EndSplineSet
EndChar

StartChar: e
Encoding: 101 101 4
Width: 1000
Flags: H
LayerCount: 2
Fore
SplineSet
0 672 m 1
 0 800 l 1
 128 800 l 1
 128 672 l 1
 0 672 l 1
128 672 m 1
 128 800 l 1
 256 800 l 1
 256 672 l 1
 128 672 l 1
256 672 m 1
 256 800 l 1
 384 800 l 1
 384 672 l 1
 256 672 l 1
384 672 m 1
 384 800 l 1
 512 800 l 1
 512 672 l 1
 384 672 l 1
512 672 m 1
 512 800 l 1
 640 800 l 1
 640 672 l 1
 512 672 l 1
512 544 m 1
 512 672 l 1
 640 672 l 1
 640 544 l 1
 512 544 l 1
0 416 m 1
 0 544 l 1
 128 544 l 1
 128 416 l 1
 0 416 l 1
128 416 m 1
 128 544 l 1
 256 544 l 1
 256 416 l 1
 128 416 l 1
256 416 m 1
 256 544 l 1
 384 544 l 1
 384 416 l 1
 256 416 l 1
384 416 m 1
 384 544 l 1
 512 544 l 1
 512 416 l 1
 384 416 l 1
512 416 m 1
 512 544 l 1
 640 544 l 1
 640 416 l 1
 512 416 l 1
0 160 m 1
 0 288 l 1
 128 288 l 1
 128 160 l 1
 0 160 l 1
128 160 m 1
 128 288 l 1
 256 288 l 1
 256 160 l 1
 128 160 l 1
256 160 m 1
 256 288 l 1
 384 288 l 1
 384 160 l 1
 256 160 l 1
384 160 m 1
 384 288 l 1
 512 288 l 1
 512 160 l 1
 384 160 l 1
512 160 m 1
 512 288 l 1
 640 288 l 1
 640 160 l 1
 512 160 l 1
EndSplineSet
EndChar

StartChar: f
Encoding: 102 102 5
Width: 1000
Flags: H
LayerCount: 2
Fore
SplineSet
0 672 m 1
 0 800 l 1
 128 800 l 1
 128 672 l 1
 0 672 l 1
128 672 m 1
 128 800 l 1
 256 800 l 1
 256 672 l 1
 128 672 l 1
256 672 m 1
 256 800 l 1
 384 800 l 1
 384 672 l 1
 256 672 l 1
384 672 m 1
 384 800 l 1
 512 800 l 1
 512 672 l 1
 384 672 l 1
512 672 m 1
 512 800 l 1
 640 800 l 1
 640 672 l 1
 512 672 l 1
512 544 m 1
 512 672 l 1
 640 672 l 1
 640 544 l 1
 512 544 l 1
0 416 m 1
 0 544 l 1
 128 544 l 1
 128 416 l 1
 0 416 l 1
128 416 m 1
 128 544 l 1
 256 544 l 1
 256 416 l 1
 128 416 l 1
256 416 m 1
 256 544 l 1
 384 544 l 1
 384 416 l 1
 256 416 l 1
512 416 m 1
 512 544 l 1
 640 544 l 1
 640 416 l 1
 512 416 l 1
0 288 m 1
 0 416 l 1
 128 416 l 1
 128 288 l 1
 0 288 l 1
128 288 m 1
 128 416 l 1
 256 416 l 1
 256 288 l 1
 128 288 l 1
256 288 m 1
 256 416 l 1
 384 416 l 1
 384 288 l 1
 256 288 l 1
512 288 m 1
 512 416 l 1
 640 416 l 1
 640 288 l 1
 512 288 l 1
0 160 m 1
 0 288 l 1
 128 288 l 1
 128 160 l 1
 0 160 l 1
128 160 m 1
 128 288 l 1
 256 288 l 1
 256 160 l 1
 128 160 l 1
256 160 m 1
 256 288 l 1
 384 288 l 1
 384 160 l 1
 256 160 l 1
512 160 m 1
 512 288 l 1
 640 288 l 1
 640 160 l 1
 512 160 l 1
EndSplineSet
EndChar

StartChar: g
Encoding: 103 103 6
Width: 1000
Flags: H
LayerCount: 2
Fore
SplineSet
0 672 m 1
 0 800 l 1
 128 800 l 1
 128 672 l 1
 0 672 l 1
512 672 m 1
 512 800 l 1
 640 800 l 1
 640 672 l 1
 512 672 l 1
128 544 m 1
 128 672 l 1
 256 672 l 1
 256 544 l 1
 128 544 l 1
512 544 m 1
 512 672 l 1
 640 672 l 1
 640 544 l 1
 512 544 l 1
256 416 m 1
 256 544 l 1
 384 544 l 1
 384 416 l 1
 256 416 l 1
512 416 m 1
 512 544 l 1
 640 544 l 1
 640 416 l 1
 512 416 l 1
512 288 m 1
 512 416 l 1
 640 416 l 1
 640 288 l 1
 512 288 l 1
0 160 m 1
 0 288 l 1
 128 288 l 1
 128 160 l 1
 0 160 l 1
128 160 m 1
 128 288 l 1
 256 288 l 1
 256 160 l 1
 128 160 l 1
256 160 m 1
 256 288 l 1
 384 288 l 1
 384 160 l 1
 256 160 l 1
384 160 m 1
 384 288 l 1
 512 288 l 1
 512 160 l 1
 384 160 l 1
512 160 m 1
 512 288 l 1
 640 288 l 1
 640 160 l 1
 512 160 l 1
EndSplineSet
EndChar

StartChar: h
Encoding: 104 104 7
Width: 1000
Flags: H
LayerCount: 2
Fore
SplineSet
0 416 m 1
 0 544 l 1
 128 544 l 1
 128 416 l 1
 0 416 l 1
128 416 m 1
 128 544 l 1
 256 544 l 1
 256 416 l 1
 128 416 l 1
256 416 m 1
 256 544 l 1
 384 544 l 1
 384 416 l 1
 256 416 l 1
384 416 m 1
 384 544 l 1
 512 544 l 1
 512 416 l 1
 384 416 l 1
512 416 m 1
 512 544 l 1
 640 544 l 1
 640 416 l 1
 512 416 l 1
EndSplineSet
EndChar

StartChar: i
Encoding: 105 105 8
Width: 1000
Flags: H
LayerCount: 2
Fore
SplineSet
256 672 m 1
 256 800 l 1
 384 800 l 1
 384 672 l 1
 256 672 l 1
256 544 m 1
 256 672 l 1
 384 672 l 1
 384 544 l 1
 256 544 l 1
256 288 m 1
 256 416 l 1
 384 416 l 1
 384 288 l 1
 256 288 l 1
256 160 m 1
 256 288 l 1
 384 288 l 1
 384 160 l 1
 256 160 l 1
EndSplineSet
EndChar

StartChar: j
Encoding: 106 106 9
Width: 1000
Flags: H
LayerCount: 2
Fore
SplineSet
512 672 m 1
 512 800 l 1
 640 800 l 1
 640 672 l 1
 512 672 l 1
512 544 m 1
 512 672 l 1
 640 672 l 1
 640 544 l 1
 512 544 l 1
512 416 m 1
 512 544 l 1
 640 544 l 1
 640 416 l 1
 512 416 l 1
0 288 m 1
 0 416 l 1
 128 416 l 1
 128 288 l 1
 0 288 l 1
256 288 m 1
 256 416 l 1
 384 416 l 1
 384 288 l 1
 256 288 l 1
512 288 m 1
 512 416 l 1
 640 416 l 1
 640 288 l 1
 512 288 l 1
0 160 m 1
 0 288 l 1
 128 288 l 1
 128 160 l 1
 0 160 l 1
256 160 m 1
 256 288 l 1
 384 288 l 1
 384 160 l 1
 256 160 l 1
512 160 m 1
 512 288 l 1
 640 288 l 1
 640 160 l 1
 512 160 l 1
EndSplineSet
EndChar

StartChar: k
Encoding: 107 107 10
Width: 1000
Flags: H
LayerCount: 2
Fore
SplineSet
0 672 m 1
 0 800 l 1
 128 800 l 1
 128 672 l 1
 0 672 l 1
512 672 m 1
 512 800 l 1
 640 800 l 1
 640 672 l 1
 512 672 l 1
0 544 m 1
 0 672 l 1
 128 672 l 1
 128 544 l 1
 0 544 l 1
512 544 m 1
 512 672 l 1
 640 672 l 1
 640 544 l 1
 512 544 l 1
0 416 m 1
 0 544 l 1
 128 544 l 1
 128 416 l 1
 0 416 l 1
256 416 m 1
 256 544 l 1
 384 544 l 1
 384 416 l 1
 256 416 l 1
512 416 m 1
 512 544 l 1
 640 544 l 1
 640 416 l 1
 512 416 l 1
0 288 m 1
 0 416 l 1
 128 416 l 1
 128 288 l 1
 0 288 l 1
512 288 m 1
 512 416 l 1
 640 416 l 1
 640 288 l 1
 512 288 l 1
0 160 m 1
 0 288 l 1
 128 288 l 1
 128 160 l 1
 0 160 l 1
512 160 m 1
 512 288 l 1
 640 288 l 1
 640 160 l 1
 512 160 l 1
EndSplineSet
EndChar

StartChar: l
Encoding: 108 108 11
Width: 1000
Flags: H
LayerCount: 2
Fore
SplineSet
0 672 m 1
 0 800 l 1
 128 800 l 1
 128 672 l 1
 0 672 l 1
128 672 m 1
 128 800 l 1
 256 800 l 1
 256 672 l 1
 128 672 l 1
256 672 m 1
 256 800 l 1
 384 800 l 1
 384 672 l 1
 256 672 l 1
512 672 m 1
 512 800 l 1
 640 800 l 1
 640 672 l 1
 512 672 l 1
0 544 m 1
 0 672 l 1
 128 672 l 1
 128 544 l 1
 0 544 l 1
128 544 m 1
 128 672 l 1
 256 672 l 1
 256 544 l 1
 128 544 l 1
256 544 m 1
 256 672 l 1
 384 672 l 1
 384 544 l 1
 256 544 l 1
512 544 m 1
 512 672 l 1
 640 672 l 1
 640 544 l 1
 512 544 l 1
512 416 m 1
 512 544 l 1
 640 544 l 1
 640 416 l 1
 512 416 l 1
512 288 m 1
 512 416 l 1
 640 416 l 1
 640 288 l 1
 512 288 l 1
512 160 m 1
 512 288 l 1
 640 288 l 1
 640 160 l 1
 512 160 l 1
EndSplineSet
EndChar

StartChar: m
Encoding: 109 109 12
Width: 1000
Flags: H
LayerCount: 2
Fore
SplineSet
0 672 m 1
 0 800 l 1
 128 800 l 1
 128 672 l 1
 0 672 l 1
256 672 m 1
 256 800 l 1
 384 800 l 1
 384 672 l 1
 256 672 l 1
512 672 m 1
 512 800 l 1
 640 800 l 1
 640 672 l 1
 512 672 l 1
0 544 m 1
 0 672 l 1
 128 672 l 1
 128 544 l 1
 0 544 l 1
256 544 m 1
 256 672 l 1
 384 672 l 1
 384 544 l 1
 256 544 l 1
512 544 m 1
 512 672 l 1
 640 672 l 1
 640 544 l 1
 512 544 l 1
0 416 m 1
 0 544 l 1
 128 544 l 1
 128 416 l 1
 0 416 l 1
256 416 m 1
 256 544 l 1
 384 544 l 1
 384 416 l 1
 256 416 l 1
512 416 m 1
 512 544 l 1
 640 544 l 1
 640 416 l 1
 512 416 l 1
512 288 m 1
 512 416 l 1
 640 416 l 1
 640 288 l 1
 512 288 l 1
0 160 m 1
 0 288 l 1
 128 288 l 1
 128 160 l 1
 0 160 l 1
128 160 m 1
 128 288 l 1
 256 288 l 1
 256 160 l 1
 128 160 l 1
256 160 m 1
 256 288 l 1
 384 288 l 1
 384 160 l 1
 256 160 l 1
384 160 m 1
 384 288 l 1
 512 288 l 1
 512 160 l 1
 384 160 l 1
512 160 m 1
 512 288 l 1
 640 288 l 1
 640 160 l 1
 512 160 l 1
EndSplineSet
EndChar

StartChar: n
Encoding: 110 110 13
Width: 1000
Flags: H
LayerCount: 2
Fore
SplineSet
128 672 m 1
 128 800 l 1
 256 800 l 1
 256 672 l 1
 128 672 l 1
384 672 m 1
 384 800 l 1
 512 800 l 1
 512 672 l 1
 384 672 l 1
128 544 m 1
 128 672 l 1
 256 672 l 1
 256 544 l 1
 128 544 l 1
384 544 m 1
 384 672 l 1
 512 672 l 1
 512 544 l 1
 384 544 l 1
128 416 m 1
 128 544 l 1
 256 544 l 1
 256 416 l 1
 128 416 l 1
384 416 m 1
 384 544 l 1
 512 544 l 1
 512 416 l 1
 384 416 l 1
128 288 m 1
 128 416 l 1
 256 416 l 1
 256 288 l 1
 128 288 l 1
128 160 m 1
 128 288 l 1
 256 288 l 1
 256 160 l 1
 128 160 l 1
256 160 m 1
 256 288 l 1
 384 288 l 1
 384 160 l 1
 256 160 l 1
384 160 m 1
 384 288 l 1
 512 288 l 1
 512 160 l 1
 384 160 l 1
EndSplineSet
EndChar

StartChar: o
Encoding: 111 111 14
Width: 1000
Flags: H
LayerCount: 2
Fore
SplineSet
0 672 m 1
 0 800 l 1
 128 800 l 1
 128 672 l 1
 0 672 l 1
128 672 m 1
 128 800 l 1
 256 800 l 1
 256 672 l 1
 128 672 l 1
256 672 m 1
 256 800 l 1
 384 800 l 1
 384 672 l 1
 256 672 l 1
384 672 m 1
 384 800 l 1
 512 800 l 1
 512 672 l 1
 384 672 l 1
512 672 m 1
 512 800 l 1
 640 800 l 1
 640 672 l 1
 512 672 l 1
0 544 m 1
 0 672 l 1
 128 672 l 1
 128 544 l 1
 0 544 l 1
512 544 m 1
 512 672 l 1
 640 672 l 1
 640 544 l 1
 512 544 l 1
0 416 m 1
 0 544 l 1
 128 544 l 1
 128 416 l 1
 0 416 l 1
256 416 m 1
 256 544 l 1
 384 544 l 1
 384 416 l 1
 256 416 l 1
512 416 m 1
 512 544 l 1
 640 544 l 1
 640 416 l 1
 512 416 l 1
0 288 m 1
 0 416 l 1
 128 416 l 1
 128 288 l 1
 0 288 l 1
512 288 m 1
 512 416 l 1
 640 416 l 1
 640 288 l 1
 512 288 l 1
0 160 m 1
 0 288 l 1
 128 288 l 1
 128 160 l 1
 0 160 l 1
128 160 m 1
 128 288 l 1
 256 288 l 1
 256 160 l 1
 128 160 l 1
256 160 m 1
 256 288 l 1
 384 288 l 1
 384 160 l 1
 256 160 l 1
384 160 m 1
 384 288 l 1
 512 288 l 1
 512 160 l 1
 384 160 l 1
512 160 m 1
 512 288 l 1
 640 288 l 1
 640 160 l 1
 512 160 l 1
EndSplineSet
EndChar

StartChar: p
Encoding: 112 112 15
Width: 1000
Flags: H
LayerCount: 2
Fore
SplineSet
512 672 m 1
 512 800 l 1
 640 800 l 1
 640 672 l 1
 512 672 l 1
512 544 m 1
 512 672 l 1
 640 672 l 1
 640 544 l 1
 512 544 l 1
0 416 m 1
 0 544 l 1
 128 544 l 1
 128 416 l 1
 0 416 l 1
128 416 m 1
 128 544 l 1
 256 544 l 1
 256 416 l 1
 128 416 l 1
512 416 m 1
 512 544 l 1
 640 544 l 1
 640 416 l 1
 512 416 l 1
512 288 m 1
 512 416 l 1
 640 416 l 1
 640 288 l 1
 512 288 l 1
0 160 m 1
 0 288 l 1
 128 288 l 1
 128 160 l 1
 0 160 l 1
128 160 m 1
 128 288 l 1
 256 288 l 1
 256 160 l 1
 128 160 l 1
256 160 m 1
 256 288 l 1
 384 288 l 1
 384 160 l 1
 256 160 l 1
384 160 m 1
 384 288 l 1
 512 288 l 1
 512 160 l 1
 384 160 l 1
512 160 m 1
 512 288 l 1
 640 288 l 1
 640 160 l 1
 512 160 l 1
EndSplineSet
EndChar

StartChar: q
Encoding: 113 113 16
Width: 1000
Flags: H
LayerCount: 2
Fore
SplineSet
0 672 m 1
 0 800 l 1
 128 800 l 1
 128 672 l 1
 0 672 l 1
128 672 m 1
 128 800 l 1
 256 800 l 1
 256 672 l 1
 128 672 l 1
256 672 m 1
 256 800 l 1
 384 800 l 1
 384 672 l 1
 256 672 l 1
384 672 m 1
 384 800 l 1
 512 800 l 1
 512 672 l 1
 384 672 l 1
512 672 m 1
 512 800 l 1
 640 800 l 1
 640 672 l 1
 512 672 l 1
0 544 m 1
 0 672 l 1
 128 672 l 1
 128 544 l 1
 0 544 l 1
512 544 m 1
 512 672 l 1
 640 672 l 1
 640 544 l 1
 512 544 l 1
0 416 m 1
 0 544 l 1
 128 544 l 1
 128 416 l 1
 0 416 l 1
128 416 m 1
 128 544 l 1
 256 544 l 1
 256 416 l 1
 128 416 l 1
256 416 m 1
 256 544 l 1
 384 544 l 1
 384 416 l 1
 256 416 l 1
384 416 m 1
 384 544 l 1
 512 544 l 1
 512 416 l 1
 384 416 l 1
512 416 m 1
 512 544 l 1
 640 544 l 1
 640 416 l 1
 512 416 l 1
0 160 m 1
 0 288 l 1
 128 288 l 1
 128 160 l 1
 0 160 l 1
128 160 m 1
 128 288 l 1
 256 288 l 1
 256 160 l 1
 128 160 l 1
256 160 m 1
 256 288 l 1
 384 288 l 1
 384 160 l 1
 256 160 l 1
384 160 m 1
 384 288 l 1
 512 288 l 1
 512 160 l 1
 384 160 l 1
512 160 m 1
 512 288 l 1
 640 288 l 1
 640 160 l 1
 512 160 l 1
EndSplineSet
EndChar

StartChar: r
Encoding: 114 114 17
Width: 1000
Flags: H
LayerCount: 2
Fore
SplineSet
0 672 m 1
 0 800 l 1
 128 800 l 1
 128 672 l 1
 0 672 l 1
128 672 m 1
 128 800 l 1
 256 800 l 1
 256 672 l 1
 128 672 l 1
256 672 m 1
 256 800 l 1
 384 800 l 1
 384 672 l 1
 256 672 l 1
384 672 m 1
 384 800 l 1
 512 800 l 1
 512 672 l 1
 384 672 l 1
512 672 m 1
 512 800 l 1
 640 800 l 1
 640 672 l 1
 512 672 l 1
512 416 m 1
 512 544 l 1
 640 544 l 1
 640 416 l 1
 512 416 l 1
0 160 m 1
 0 288 l 1
 128 288 l 1
 128 160 l 1
 0 160 l 1
128 160 m 1
 128 288 l 1
 256 288 l 1
 256 160 l 1
 128 160 l 1
256 160 m 1
 256 288 l 1
 384 288 l 1
 384 160 l 1
 256 160 l 1
384 160 m 1
 384 288 l 1
 512 288 l 1
 512 160 l 1
 384 160 l 1
512 160 m 1
 512 288 l 1
 640 288 l 1
 640 160 l 1
 512 160 l 1
EndSplineSet
EndChar

StartChar: s
Encoding: 115 115 18
Width: 1000
Flags: H
LayerCount: 2
Fore
SplineSet
0 672 m 1
 0 800 l 1
 128 800 l 1
 128 672 l 1
 0 672 l 1
128 672 m 1
 128 800 l 1
 256 800 l 1
 256 672 l 1
 128 672 l 1
256 672 m 1
 256 800 l 1
 384 800 l 1
 384 672 l 1
 256 672 l 1
384 672 m 1
 384 800 l 1
 512 800 l 1
 512 672 l 1
 384 672 l 1
512 672 m 1
 512 800 l 1
 640 800 l 1
 640 672 l 1
 512 672 l 1
512 544 m 1
 512 672 l 1
 640 672 l 1
 640 544 l 1
 512 544 l 1
0 416 m 1
 0 544 l 1
 128 544 l 1
 128 416 l 1
 0 416 l 1
128 416 m 1
 128 544 l 1
 256 544 l 1
 256 416 l 1
 128 416 l 1
256 416 m 1
 256 544 l 1
 384 544 l 1
 384 416 l 1
 256 416 l 1
384 416 m 1
 384 544 l 1
 512 544 l 1
 512 416 l 1
 384 416 l 1
512 416 m 1
 512 544 l 1
 640 544 l 1
 640 416 l 1
 512 416 l 1
0 288 m 1
 0 416 l 1
 128 416 l 1
 128 288 l 1
 0 288 l 1
0 160 m 1
 0 288 l 1
 128 288 l 1
 128 160 l 1
 0 160 l 1
128 160 m 1
 128 288 l 1
 256 288 l 1
 256 160 l 1
 128 160 l 1
256 160 m 1
 256 288 l 1
 384 288 l 1
 384 160 l 1
 256 160 l 1
384 160 m 1
 384 288 l 1
 512 288 l 1
 512 160 l 1
 384 160 l 1
512 160 m 1
 512 288 l 1
 640 288 l 1
 640 160 l 1
 512 160 l 1
EndSplineSet
EndChar

StartChar: t
Encoding: 116 116 19
Width: 1000
Flags: H
LayerCount: 2
Fore
SplineSet
256 672 m 1
 256 800 l 1
 384 800 l 1
 384 672 l 1
 256 672 l 1
256 544 m 1
 256 672 l 1
 384 672 l 1
 384 544 l 1
 256 544 l 1
256 416 m 1
 256 544 l 1
 384 544 l 1
 384 416 l 1
 256 416 l 1
0 160 m 1
 0 288 l 1
 128 288 l 1
 128 160 l 1
 0 160 l 1
128 160 m 1
 128 288 l 1
 256 288 l 1
 256 160 l 1
 128 160 l 1
256 160 m 1
 256 288 l 1
 384 288 l 1
 384 160 l 1
 256 160 l 1
384 160 m 1
 384 288 l 1
 512 288 l 1
 512 160 l 1
 384 160 l 1
512 160 m 1
 512 288 l 1
 640 288 l 1
 640 160 l 1
 512 160 l 1
EndSplineSet
EndChar

StartChar: u
Encoding: 117 117 20
Width: 1000
Flags: H
LayerCount: 2
Fore
SplineSet
0 288 m 1
 0 416 l 1
 128 416 l 1
 128 288 l 1
 0 288 l 1
256 288 m 1
 256 416 l 1
 384 416 l 1
 384 288 l 1
 256 288 l 1
0 160 m 1
 0 288 l 1
 128 288 l 1
 128 160 l 1
 0 160 l 1
256 160 m 1
 256 288 l 1
 384 288 l 1
 384 160 l 1
 256 160 l 1
EndSplineSet
EndChar

StartChar: v
Encoding: 118 118 21
Width: 1000
Flags: H
LayerCount: 2
Fore
SplineSet
256 672 m 1
 256 800 l 1
 384 800 l 1
 384 672 l 1
 256 672 l 1
384 672 m 1
 384 800 l 1
 512 800 l 1
 512 672 l 1
 384 672 l 1
512 672 m 1
 512 800 l 1
 640 800 l 1
 640 672 l 1
 512 672 l 1
128 544 m 1
 128 672 l 1
 256 672 l 1
 256 544 l 1
 128 544 l 1
512 544 m 1
 512 672 l 1
 640 672 l 1
 640 544 l 1
 512 544 l 1
0 416 m 1
 0 544 l 1
 128 544 l 1
 128 416 l 1
 0 416 l 1
512 416 m 1
 512 544 l 1
 640 544 l 1
 640 416 l 1
 512 416 l 1
512 288 m 1
 512 416 l 1
 640 416 l 1
 640 288 l 1
 512 288 l 1
512 160 m 1
 512 288 l 1
 640 288 l 1
 640 160 l 1
 512 160 l 1
EndSplineSet
EndChar

StartChar: w
Encoding: 119 119 22
Width: 1000
Flags: H
LayerCount: 2
Fore
SplineSet
256 672 m 1
 256 800 l 1
 384 800 l 1
 384 672 l 1
 256 672 l 1
384 672 m 1
 384 800 l 1
 512 800 l 1
 512 672 l 1
 384 672 l 1
512 672 m 1
 512 800 l 1
 640 800 l 1
 640 672 l 1
 512 672 l 1
128 544 m 1
 128 672 l 1
 256 672 l 1
 256 544 l 1
 128 544 l 1
384 544 m 1
 384 672 l 1
 512 672 l 1
 512 544 l 1
 384 544 l 1
512 544 m 1
 512 672 l 1
 640 672 l 1
 640 544 l 1
 512 544 l 1
0 416 m 1
 0 544 l 1
 128 544 l 1
 128 416 l 1
 0 416 l 1
256 416 m 1
 256 544 l 1
 384 544 l 1
 384 416 l 1
 256 416 l 1
512 416 m 1
 512 544 l 1
 640 544 l 1
 640 416 l 1
 512 416 l 1
128 288 m 1
 128 416 l 1
 256 416 l 1
 256 288 l 1
 128 288 l 1
512 288 m 1
 512 416 l 1
 640 416 l 1
 640 288 l 1
 512 288 l 1
512 160 m 1
 512 288 l 1
 640 288 l 1
 640 160 l 1
 512 160 l 1
EndSplineSet
EndChar

StartChar: x
Encoding: 120 120 23
Width: 1000
Flags: H
LayerCount: 2
Fore
SplineSet
0 672 m 1
 0 800 l 1
 128 800 l 1
 128 672 l 1
 0 672 l 1
512 672 m 1
 512 800 l 1
 640 800 l 1
 640 672 l 1
 512 672 l 1
128 544 m 1
 128 672 l 1
 256 672 l 1
 256 544 l 1
 128 544 l 1
256 416 m 1
 256 544 l 1
 384 544 l 1
 384 416 l 1
 256 416 l 1
384 288 m 1
 384 416 l 1
 512 416 l 1
 512 288 l 1
 384 288 l 1
0 160 m 1
 0 288 l 1
 128 288 l 1
 128 160 l 1
 0 160 l 1
512 160 m 1
 512 288 l 1
 640 288 l 1
 640 160 l 1
 512 160 l 1
EndSplineSet
EndChar

StartChar: y
Encoding: 121 121 24
Width: 1000
Flags: H
LayerCount: 2
Fore
SplineSet
0 544 m 1
 0 672 l 1
 128 672 l 1
 128 544 l 1
 0 544 l 1
0 416 m 1
 0 544 l 1
 128 544 l 1
 128 416 l 1
 0 416 l 1
128 416 m 1
 128 544 l 1
 256 544 l 1
 256 416 l 1
 128 416 l 1
256 416 m 1
 256 544 l 1
 384 544 l 1
 384 416 l 1
 256 416 l 1
384 416 m 1
 384 544 l 1
 512 544 l 1
 512 416 l 1
 384 416 l 1
512 416 m 1
 512 544 l 1
 640 544 l 1
 640 416 l 1
 512 416 l 1
EndSplineSet
EndChar

StartChar: z
Encoding: 122 122 25
Width: 1000
Flags: H
LayerCount: 2
Fore
SplineSet
0 672 m 1
 0 800 l 1
 128 800 l 1
 128 672 l 1
 0 672 l 1
256 672 m 1
 256 800 l 1
 384 800 l 1
 384 672 l 1
 256 672 l 1
512 672 m 1
 512 800 l 1
 640 800 l 1
 640 672 l 1
 512 672 l 1
0 544 m 1
 0 672 l 1
 128 672 l 1
 128 544 l 1
 0 544 l 1
256 544 m 1
 256 672 l 1
 384 672 l 1
 384 544 l 1
 256 544 l 1
512 544 m 1
 512 672 l 1
 640 672 l 1
 640 544 l 1
 512 544 l 1
0 416 m 1
 0 544 l 1
 128 544 l 1
 128 416 l 1
 0 416 l 1
512 416 m 1
 512 544 l 1
 640 544 l 1
 640 416 l 1
 512 416 l 1
0 288 m 1
 0 416 l 1
 128 416 l 1
 128 288 l 1
 0 288 l 1
256 288 m 1
 256 416 l 1
 384 416 l 1
 384 288 l 1
 256 288 l 1
512 288 m 1
 512 416 l 1
 640 416 l 1
 640 288 l 1
 512 288 l 1
0 160 m 1
 0 288 l 1
 128 288 l 1
 128 160 l 1
 0 160 l 1
256 160 m 1
 256 288 l 1
 384 288 l 1
 384 160 l 1
 256 160 l 1
512 160 m 1
 512 288 l 1
 640 288 l 1
 640 160 l 1
 512 160 l 1
EndSplineSet
EndChar

StartChar: A
Encoding: 65 65 26
Width: 1000
Flags: H
LayerCount: 2
Fore
SplineSet
0 672 m 1
 0 800 l 1
 128 800 l 1
 128 672 l 1
 0 672 l 1
128 672 m 1
 128 800 l 1
 256 800 l 1
 256 672 l 1
 128 672 l 1
256 672 m 1
 256 800 l 1
 384 800 l 1
 384 672 l 1
 256 672 l 1
384 672 m 1
 384 800 l 1
 512 800 l 1
 512 672 l 1
 384 672 l 1
512 672 m 1
 512 800 l 1
 640 800 l 1
 640 672 l 1
 512 672 l 1
0 544 m 1
 0 672 l 1
 128 672 l 1
 128 544 l 1
 0 544 l 1
512 544 m 1
 512 672 l 1
 640 672 l 1
 640 544 l 1
 512 544 l 1
0 416 m 1
 0 544 l 1
 128 544 l 1
 128 416 l 1
 0 416 l 1
512 416 m 1
 512 544 l 1
 640 544 l 1
 640 416 l 1
 512 416 l 1
0 288 m 1
 0 416 l 1
 128 416 l 1
 128 288 l 1
 0 288 l 1
256 288 m 1
 256 416 l 1
 384 416 l 1
 384 288 l 1
 256 288 l 1
512 288 m 1
 512 416 l 1
 640 416 l 1
 640 288 l 1
 512 288 l 1
0 160 m 1
 0 288 l 1
 128 288 l 1
 128 160 l 1
 0 160 l 1
256 160 m 1
 256 288 l 1
 384 288 l 1
 384 160 l 1
 256 160 l 1
512 160 m 1
 512 288 l 1
 640 288 l 1
 640 160 l 1
 512 160 l 1
EndSplineSet
EndChar

StartChar: B
Encoding: 66 66 27
Width: 1000
Flags: H
LayerCount: 2
Fore
SplineSet
0 672 m 1
 0 800 l 1
 128 800 l 1
 128 672 l 1
 0 672 l 1
128 672 m 1
 128 800 l 1
 256 800 l 1
 256 672 l 1
 128 672 l 1
256 672 m 1
 256 800 l 1
 384 800 l 1
 384 672 l 1
 256 672 l 1
384 672 m 1
 384 800 l 1
 512 800 l 1
 512 672 l 1
 384 672 l 1
512 672 m 1
 512 800 l 1
 640 800 l 1
 640 672 l 1
 512 672 l 1
0 544 m 1
 0 672 l 1
 128 672 l 1
 128 544 l 1
 0 544 l 1
512 544 m 1
 512 672 l 1
 640 672 l 1
 640 544 l 1
 512 544 l 1
0 416 m 1
 0 544 l 1
 128 544 l 1
 128 416 l 1
 0 416 l 1
128 416 m 1
 128 544 l 1
 256 544 l 1
 256 416 l 1
 128 416 l 1
256 416 m 1
 256 544 l 1
 384 544 l 1
 384 416 l 1
 256 416 l 1
384 416 m 1
 384 544 l 1
 512 544 l 1
 512 416 l 1
 384 416 l 1
512 416 m 1
 512 544 l 1
 640 544 l 1
 640 416 l 1
 512 416 l 1
0 288 m 1
 0 416 l 1
 128 416 l 1
 128 288 l 1
 0 288 l 1
512 288 m 1
 512 416 l 1
 640 416 l 1
 640 288 l 1
 512 288 l 1
0 160 m 1
 0 288 l 1
 128 288 l 1
 128 160 l 1
 0 160 l 1
128 160 m 1
 128 288 l 1
 256 288 l 1
 256 160 l 1
 128 160 l 1
256 160 m 1
 256 288 l 1
 384 288 l 1
 384 160 l 1
 256 160 l 1
384 160 m 1
 384 288 l 1
 512 288 l 1
 512 160 l 1
 384 160 l 1
512 160 m 1
 512 288 l 1
 640 288 l 1
 640 160 l 1
 512 160 l 1
EndSplineSet
EndChar

StartChar: C
Encoding: 67 67 28
Width: 1000
Flags: H
LayerCount: 2
Fore
SplineSet
0 672 m 1
 0 800 l 1
 128 800 l 1
 128 672 l 1
 0 672 l 1
128 672 m 1
 128 800 l 1
 256 800 l 1
 256 672 l 1
 128 672 l 1
256 672 m 1
 256 800 l 1
 384 800 l 1
 384 672 l 1
 256 672 l 1
384 672 m 1
 384 800 l 1
 512 800 l 1
 512 672 l 1
 384 672 l 1
512 672 m 1
 512 800 l 1
 640 800 l 1
 640 672 l 1
 512 672 l 1
0 416 m 1
 0 544 l 1
 128 544 l 1
 128 416 l 1
 0 416 l 1
0 288 m 1
 0 416 l 1
 128 416 l 1
 128 288 l 1
 0 288 l 1
0 160 m 1
 0 288 l 1
 128 288 l 1
 128 160 l 1
 0 160 l 1
128 160 m 1
 128 288 l 1
 256 288 l 1
 256 160 l 1
 128 160 l 1
256 160 m 1
 256 288 l 1
 384 288 l 1
 384 160 l 1
 256 160 l 1
384 160 m 1
 384 288 l 1
 512 288 l 1
 512 160 l 1
 384 160 l 1
512 160 m 1
 512 288 l 1
 640 288 l 1
 640 160 l 1
 512 160 l 1
EndSplineSet
EndChar

StartChar: D
Encoding: 68 68 29
Width: 1000
Flags: H
LayerCount: 2
Fore
SplineSet
0 672 m 1
 0 800 l 1
 128 800 l 1
 128 672 l 1
 0 672 l 1
128 672 m 1
 128 800 l 1
 256 800 l 1
 256 672 l 1
 128 672 l 1
256 672 m 1
 256 800 l 1
 384 800 l 1
 384 672 l 1
 256 672 l 1
384 672 m 1
 384 800 l 1
 512 800 l 1
 512 672 l 1
 384 672 l 1
512 672 m 1
 512 800 l 1
 640 800 l 1
 640 672 l 1
 512 672 l 1
512 544 m 1
 512 672 l 1
 640 672 l 1
 640 544 l 1
 512 544 l 1
512 416 m 1
 512 544 l 1
 640 544 l 1
 640 416 l 1
 512 416 l 1
512 288 m 1
 512 416 l 1
 640 416 l 1
 640 288 l 1
 512 288 l 1
0 160 m 1
 0 288 l 1
 128 288 l 1
 128 160 l 1
 0 160 l 1
128 160 m 1
 128 288 l 1
 256 288 l 1
 256 160 l 1
 128 160 l 1
256 160 m 1
 256 288 l 1
 384 288 l 1
 384 160 l 1
 256 160 l 1
384 160 m 1
 384 288 l 1
 512 288 l 1
 512 160 l 1
 384 160 l 1
512 160 m 1
 512 288 l 1
 640 288 l 1
 640 160 l 1
 512 160 l 1
EndSplineSet
EndChar

StartChar: E
Encoding: 69 69 30
Width: 1000
Flags: H
LayerCount: 2
Fore
SplineSet
0 672 m 1
 0 800 l 1
 128 800 l 1
 128 672 l 1
 0 672 l 1
128 672 m 1
 128 800 l 1
 256 800 l 1
 256 672 l 1
 128 672 l 1
256 672 m 1
 256 800 l 1
 384 800 l 1
 384 672 l 1
 256 672 l 1
384 672 m 1
 384 800 l 1
 512 800 l 1
 512 672 l 1
 384 672 l 1
512 672 m 1
 512 800 l 1
 640 800 l 1
 640 672 l 1
 512 672 l 1
0 416 m 1
 0 544 l 1
 128 544 l 1
 128 416 l 1
 0 416 l 1
128 416 m 1
 128 544 l 1
 256 544 l 1
 256 416 l 1
 128 416 l 1
256 416 m 1
 256 544 l 1
 384 544 l 1
 384 416 l 1
 256 416 l 1
384 416 m 1
 384 544 l 1
 512 544 l 1
 512 416 l 1
 384 416 l 1
512 416 m 1
 512 544 l 1
 640 544 l 1
 640 416 l 1
 512 416 l 1
0 288 m 1
 0 416 l 1
 128 416 l 1
 128 288 l 1
 0 288 l 1
0 160 m 1
 0 288 l 1
 128 288 l 1
 128 160 l 1
 0 160 l 1
128 160 m 1
 128 288 l 1
 256 288 l 1
 256 160 l 1
 128 160 l 1
256 160 m 1
 256 288 l 1
 384 288 l 1
 384 160 l 1
 256 160 l 1
384 160 m 1
 384 288 l 1
 512 288 l 1
 512 160 l 1
 384 160 l 1
512 160 m 1
 512 288 l 1
 640 288 l 1
 640 160 l 1
 512 160 l 1
EndSplineSet
EndChar

StartChar: F
Encoding: 70 70 31
Width: 1000
Flags: H
LayerCount: 2
Fore
SplineSet
0 672 m 1
 0 800 l 1
 128 800 l 1
 128 672 l 1
 0 672 l 1
256 672 m 1
 256 800 l 1
 384 800 l 1
 384 672 l 1
 256 672 l 1
384 672 m 1
 384 800 l 1
 512 800 l 1
 512 672 l 1
 384 672 l 1
512 672 m 1
 512 800 l 1
 640 800 l 1
 640 672 l 1
 512 672 l 1
0 544 m 1
 0 672 l 1
 128 672 l 1
 128 544 l 1
 0 544 l 1
256 544 m 1
 256 672 l 1
 384 672 l 1
 384 544 l 1
 256 544 l 1
384 544 m 1
 384 672 l 1
 512 672 l 1
 512 544 l 1
 384 544 l 1
512 544 m 1
 512 672 l 1
 640 672 l 1
 640 544 l 1
 512 544 l 1
0 416 m 1
 0 544 l 1
 128 544 l 1
 128 416 l 1
 0 416 l 1
256 416 m 1
 256 544 l 1
 384 544 l 1
 384 416 l 1
 256 416 l 1
384 416 m 1
 384 544 l 1
 512 544 l 1
 512 416 l 1
 384 416 l 1
512 416 m 1
 512 544 l 1
 640 544 l 1
 640 416 l 1
 512 416 l 1
0 288 m 1
 0 416 l 1
 128 416 l 1
 128 288 l 1
 0 288 l 1
0 160 m 1
 0 288 l 1
 128 288 l 1
 128 160 l 1
 0 160 l 1
128 160 m 1
 128 288 l 1
 256 288 l 1
 256 160 l 1
 128 160 l 1
256 160 m 1
 256 288 l 1
 384 288 l 1
 384 160 l 1
 256 160 l 1
384 160 m 1
 384 288 l 1
 512 288 l 1
 512 160 l 1
 384 160 l 1
512 160 m 1
 512 288 l 1
 640 288 l 1
 640 160 l 1
 512 160 l 1
EndSplineSet
EndChar

StartChar: G
Encoding: 71 71 32
Width: 1000
Flags: H
LayerCount: 2
Fore
SplineSet
0 672 m 1
 0 800 l 1
 128 800 l 1
 128 672 l 1
 0 672 l 1
128 672 m 1
 128 800 l 1
 256 800 l 1
 256 672 l 1
 128 672 l 1
256 672 m 1
 256 800 l 1
 384 800 l 1
 384 672 l 1
 256 672 l 1
384 672 m 1
 384 800 l 1
 512 800 l 1
 512 672 l 1
 384 672 l 1
512 672 m 1
 512 800 l 1
 640 800 l 1
 640 672 l 1
 512 672 l 1
0 544 m 1
 0 672 l 1
 128 672 l 1
 128 544 l 1
 0 544 l 1
0 416 m 1
 0 544 l 1
 128 544 l 1
 128 416 l 1
 0 416 l 1
256 416 m 1
 256 544 l 1
 384 544 l 1
 384 416 l 1
 256 416 l 1
0 288 m 1
 0 416 l 1
 128 416 l 1
 128 288 l 1
 0 288 l 1
384 288 m 1
 384 416 l 1
 512 416 l 1
 512 288 l 1
 384 288 l 1
0 160 m 1
 0 288 l 1
 128 288 l 1
 128 160 l 1
 0 160 l 1
512 160 m 1
 512 288 l 1
 640 288 l 1
 640 160 l 1
 512 160 l 1
EndSplineSet
EndChar

StartChar: H
Encoding: 72 72 33
Width: 1000
Flags: H
LayerCount: 2
Fore
SplineSet
0 416 m 1
 0 544 l 1
 128 544 l 1
 128 416 l 1
 0 416 l 1
128 416 m 1
 128 544 l 1
 256 544 l 1
 256 416 l 1
 128 416 l 1
256 416 m 1
 256 544 l 1
 384 544 l 1
 384 416 l 1
 256 416 l 1
384 416 m 1
 384 544 l 1
 512 544 l 1
 512 416 l 1
 384 416 l 1
512 416 m 1
 512 544 l 1
 640 544 l 1
 640 416 l 1
 512 416 l 1
EndSplineSet
EndChar

StartChar: I
Encoding: 73 73 34
Width: 1000
Flags: H
LayerCount: 2
Fore
SplineSet
256 672 m 1
 256 800 l 1
 384 800 l 1
 384 672 l 1
 256 672 l 1
256 544 m 1
 256 672 l 1
 384 672 l 1
 384 544 l 1
 256 544 l 1
256 288 m 1
 256 416 l 1
 384 416 l 1
 384 288 l 1
 256 288 l 1
256 160 m 1
 256 288 l 1
 384 288 l 1
 384 160 l 1
 256 160 l 1
EndSplineSet
EndChar

StartChar: J
Encoding: 74 74 35
Width: 1000
Flags: H
LayerCount: 2
Fore
SplineSet
0 672 m 1
 0 800 l 1
 128 800 l 1
 128 672 l 1
 0 672 l 1
256 672 m 1
 256 800 l 1
 384 800 l 1
 384 672 l 1
 256 672 l 1
512 672 m 1
 512 800 l 1
 640 800 l 1
 640 672 l 1
 512 672 l 1
0 544 m 1
 0 672 l 1
 128 672 l 1
 128 544 l 1
 0 544 l 1
256 544 m 1
 256 672 l 1
 384 672 l 1
 384 544 l 1
 256 544 l 1
512 544 m 1
 512 672 l 1
 640 672 l 1
 640 544 l 1
 512 544 l 1
0 416 m 1
 0 544 l 1
 128 544 l 1
 128 416 l 1
 0 416 l 1
0 288 m 1
 0 416 l 1
 128 416 l 1
 128 288 l 1
 0 288 l 1
0 160 m 1
 0 288 l 1
 128 288 l 1
 128 160 l 1
 0 160 l 1
EndSplineSet
EndChar

StartChar: K
Encoding: 75 75 36
Width: 1000
Flags: H
LayerCount: 2
Fore
SplineSet
0 672 m 1
 0 800 l 1
 128 800 l 1
 128 672 l 1
 0 672 l 1
512 672 m 1
 512 800 l 1
 640 800 l 1
 640 672 l 1
 512 672 l 1
0 544 m 1
 0 672 l 1
 128 672 l 1
 128 544 l 1
 0 544 l 1
512 544 m 1
 512 672 l 1
 640 672 l 1
 640 544 l 1
 512 544 l 1
0 416 m 1
 0 544 l 1
 128 544 l 1
 128 416 l 1
 0 416 l 1
256 416 m 1
 256 544 l 1
 384 544 l 1
 384 416 l 1
 256 416 l 1
512 416 m 1
 512 544 l 1
 640 544 l 1
 640 416 l 1
 512 416 l 1
0 288 m 1
 0 416 l 1
 128 416 l 1
 128 288 l 1
 0 288 l 1
512 288 m 1
 512 416 l 1
 640 416 l 1
 640 288 l 1
 512 288 l 1
0 160 m 1
 0 288 l 1
 128 288 l 1
 128 160 l 1
 0 160 l 1
512 160 m 1
 512 288 l 1
 640 288 l 1
 640 160 l 1
 512 160 l 1
EndSplineSet
EndChar

StartChar: L
Encoding: 76 76 37
Width: 1000
Flags: H
LayerCount: 2
Fore
SplineSet
0 672 m 1
 0 800 l 1
 128 800 l 1
 128 672 l 1
 0 672 l 1
0 544 m 1
 0 672 l 1
 128 672 l 1
 128 544 l 1
 0 544 l 1
0 416 m 1
 0 544 l 1
 128 544 l 1
 128 416 l 1
 0 416 l 1
0 288 m 1
 0 416 l 1
 128 416 l 1
 128 288 l 1
 0 288 l 1
256 288 m 1
 256 416 l 1
 384 416 l 1
 384 288 l 1
 256 288 l 1
384 288 m 1
 384 416 l 1
 512 416 l 1
 512 288 l 1
 384 288 l 1
512 288 m 1
 512 416 l 1
 640 416 l 1
 640 288 l 1
 512 288 l 1
0 160 m 1
 0 288 l 1
 128 288 l 1
 128 160 l 1
 0 160 l 1
256 160 m 1
 256 288 l 1
 384 288 l 1
 384 160 l 1
 256 160 l 1
384 160 m 1
 384 288 l 1
 512 288 l 1
 512 160 l 1
 384 160 l 1
512 160 m 1
 512 288 l 1
 640 288 l 1
 640 160 l 1
 512 160 l 1
EndSplineSet
EndChar

StartChar: M
Encoding: 77 77 38
Width: 1000
Flags: H
LayerCount: 2
Fore
SplineSet
0 672 m 1
 0 800 l 1
 128 800 l 1
 128 672 l 1
 0 672 l 1
128 672 m 1
 128 800 l 1
 256 800 l 1
 256 672 l 1
 128 672 l 1
256 672 m 1
 256 800 l 1
 384 800 l 1
 384 672 l 1
 256 672 l 1
384 672 m 1
 384 800 l 1
 512 800 l 1
 512 672 l 1
 384 672 l 1
512 672 m 1
 512 800 l 1
 640 800 l 1
 640 672 l 1
 512 672 l 1
0 544 m 1
 0 672 l 1
 128 672 l 1
 128 544 l 1
 0 544 l 1
0 416 m 1
 0 544 l 1
 128 544 l 1
 128 416 l 1
 0 416 l 1
256 416 m 1
 256 544 l 1
 384 544 l 1
 384 416 l 1
 256 416 l 1
512 416 m 1
 512 544 l 1
 640 544 l 1
 640 416 l 1
 512 416 l 1
0 288 m 1
 0 416 l 1
 128 416 l 1
 128 288 l 1
 0 288 l 1
256 288 m 1
 256 416 l 1
 384 416 l 1
 384 288 l 1
 256 288 l 1
512 288 m 1
 512 416 l 1
 640 416 l 1
 640 288 l 1
 512 288 l 1
0 160 m 1
 0 288 l 1
 128 288 l 1
 128 160 l 1
 0 160 l 1
256 160 m 1
 256 288 l 1
 384 288 l 1
 384 160 l 1
 256 160 l 1
512 160 m 1
 512 288 l 1
 640 288 l 1
 640 160 l 1
 512 160 l 1
EndSplineSet
EndChar

StartChar: N
Encoding: 78 78 39
Width: 1000
Flags: H
LayerCount: 2
Fore
SplineSet
128 672 m 1
 128 800 l 1
 256 800 l 1
 256 672 l 1
 128 672 l 1
256 672 m 1
 256 800 l 1
 384 800 l 1
 384 672 l 1
 256 672 l 1
384 672 m 1
 384 800 l 1
 512 800 l 1
 512 672 l 1
 384 672 l 1
384 544 m 1
 384 672 l 1
 512 672 l 1
 512 544 l 1
 384 544 l 1
128 416 m 1
 128 544 l 1
 256 544 l 1
 256 416 l 1
 128 416 l 1
384 416 m 1
 384 544 l 1
 512 544 l 1
 512 416 l 1
 384 416 l 1
128 288 m 1
 128 416 l 1
 256 416 l 1
 256 288 l 1
 128 288 l 1
384 288 m 1
 384 416 l 1
 512 416 l 1
 512 288 l 1
 384 288 l 1
128 160 m 1
 128 288 l 1
 256 288 l 1
 256 160 l 1
 128 160 l 1
384 160 m 1
 384 288 l 1
 512 288 l 1
 512 160 l 1
 384 160 l 1
EndSplineSet
EndChar

StartChar: O
Encoding: 79 79 40
Width: 1000
Flags: H
LayerCount: 2
Fore
SplineSet
0 672 m 1
 0 800 l 1
 128 800 l 1
 128 672 l 1
 0 672 l 1
128 672 m 1
 128 800 l 1
 256 800 l 1
 256 672 l 1
 128 672 l 1
256 672 m 1
 256 800 l 1
 384 800 l 1
 384 672 l 1
 256 672 l 1
384 672 m 1
 384 800 l 1
 512 800 l 1
 512 672 l 1
 384 672 l 1
512 672 m 1
 512 800 l 1
 640 800 l 1
 640 672 l 1
 512 672 l 1
0 544 m 1
 0 672 l 1
 128 672 l 1
 128 544 l 1
 0 544 l 1
512 544 m 1
 512 672 l 1
 640 672 l 1
 640 544 l 1
 512 544 l 1
0 416 m 1
 0 544 l 1
 128 544 l 1
 128 416 l 1
 0 416 l 1
256 416 m 1
 256 544 l 1
 384 544 l 1
 384 416 l 1
 256 416 l 1
512 416 m 1
 512 544 l 1
 640 544 l 1
 640 416 l 1
 512 416 l 1
0 288 m 1
 0 416 l 1
 128 416 l 1
 128 288 l 1
 0 288 l 1
512 288 m 1
 512 416 l 1
 640 416 l 1
 640 288 l 1
 512 288 l 1
0 160 m 1
 0 288 l 1
 128 288 l 1
 128 160 l 1
 0 160 l 1
128 160 m 1
 128 288 l 1
 256 288 l 1
 256 160 l 1
 128 160 l 1
256 160 m 1
 256 288 l 1
 384 288 l 1
 384 160 l 1
 256 160 l 1
384 160 m 1
 384 288 l 1
 512 288 l 1
 512 160 l 1
 384 160 l 1
512 160 m 1
 512 288 l 1
 640 288 l 1
 640 160 l 1
 512 160 l 1
EndSplineSet
EndChar

StartChar: P
Encoding: 80 80 41
Width: 1000
Flags: H
LayerCount: 2
Fore
SplineSet
0 672 m 1
 0 800 l 1
 128 800 l 1
 128 672 l 1
 0 672 l 1
128 672 m 1
 128 800 l 1
 256 800 l 1
 256 672 l 1
 128 672 l 1
256 672 m 1
 256 800 l 1
 384 800 l 1
 384 672 l 1
 256 672 l 1
384 672 m 1
 384 800 l 1
 512 800 l 1
 512 672 l 1
 384 672 l 1
512 672 m 1
 512 800 l 1
 640 800 l 1
 640 672 l 1
 512 672 l 1
0 544 m 1
 0 672 l 1
 128 672 l 1
 128 544 l 1
 0 544 l 1
0 416 m 1
 0 544 l 1
 128 544 l 1
 128 416 l 1
 0 416 l 1
384 416 m 1
 384 544 l 1
 512 544 l 1
 512 416 l 1
 384 416 l 1
512 416 m 1
 512 544 l 1
 640 544 l 1
 640 416 l 1
 512 416 l 1
0 288 m 1
 0 416 l 1
 128 416 l 1
 128 288 l 1
 0 288 l 1
0 160 m 1
 0 288 l 1
 128 288 l 1
 128 160 l 1
 0 160 l 1
EndSplineSet
EndChar

StartChar: Q
Encoding: 81 81 42
Width: 1000
Flags: H
LayerCount: 2
Fore
SplineSet
0 672 m 1
 0 800 l 1
 128 800 l 1
 128 672 l 1
 0 672 l 1
128 672 m 1
 128 800 l 1
 256 800 l 1
 256 672 l 1
 128 672 l 1
256 672 m 1
 256 800 l 1
 384 800 l 1
 384 672 l 1
 256 672 l 1
384 672 m 1
 384 800 l 1
 512 800 l 1
 512 672 l 1
 384 672 l 1
512 672 m 1
 512 800 l 1
 640 800 l 1
 640 672 l 1
 512 672 l 1
0 416 m 1
 0 544 l 1
 128 544 l 1
 128 416 l 1
 0 416 l 1
128 416 m 1
 128 544 l 1
 256 544 l 1
 256 416 l 1
 128 416 l 1
256 416 m 1
 256 544 l 1
 384 544 l 1
 384 416 l 1
 256 416 l 1
384 416 m 1
 384 544 l 1
 512 544 l 1
 512 416 l 1
 384 416 l 1
512 416 m 1
 512 544 l 1
 640 544 l 1
 640 416 l 1
 512 416 l 1
0 288 m 1
 0 416 l 1
 128 416 l 1
 128 288 l 1
 0 288 l 1
512 288 m 1
 512 416 l 1
 640 416 l 1
 640 288 l 1
 512 288 l 1
0 160 m 1
 0 288 l 1
 128 288 l 1
 128 160 l 1
 0 160 l 1
128 160 m 1
 128 288 l 1
 256 288 l 1
 256 160 l 1
 128 160 l 1
256 160 m 1
 256 288 l 1
 384 288 l 1
 384 160 l 1
 256 160 l 1
384 160 m 1
 384 288 l 1
 512 288 l 1
 512 160 l 1
 384 160 l 1
512 160 m 1
 512 288 l 1
 640 288 l 1
 640 160 l 1
 512 160 l 1
EndSplineSet
EndChar

StartChar: R
Encoding: 82 82 43
Width: 1000
Flags: H
LayerCount: 2
Fore
SplineSet
0 672 m 1
 0 800 l 1
 128 800 l 1
 128 672 l 1
 0 672 l 1
128 672 m 1
 128 800 l 1
 256 800 l 1
 256 672 l 1
 128 672 l 1
256 672 m 1
 256 800 l 1
 384 800 l 1
 384 672 l 1
 256 672 l 1
384 672 m 1
 384 800 l 1
 512 800 l 1
 512 672 l 1
 384 672 l 1
512 672 m 1
 512 800 l 1
 640 800 l 1
 640 672 l 1
 512 672 l 1
0 416 m 1
 0 544 l 1
 128 544 l 1
 128 416 l 1
 0 416 l 1
0 160 m 1
 0 288 l 1
 128 288 l 1
 128 160 l 1
 0 160 l 1
128 160 m 1
 128 288 l 1
 256 288 l 1
 256 160 l 1
 128 160 l 1
256 160 m 1
 256 288 l 1
 384 288 l 1
 384 160 l 1
 256 160 l 1
384 160 m 1
 384 288 l 1
 512 288 l 1
 512 160 l 1
 384 160 l 1
512 160 m 1
 512 288 l 1
 640 288 l 1
 640 160 l 1
 512 160 l 1
EndSplineSet
EndChar

StartChar: S
Encoding: 83 83 44
Width: 1000
Flags: H
LayerCount: 2
Fore
SplineSet
0 672 m 1
 0 800 l 1
 128 800 l 1
 128 672 l 1
 0 672 l 1
128 672 m 1
 128 800 l 1
 256 800 l 1
 256 672 l 1
 128 672 l 1
256 672 m 1
 256 800 l 1
 384 800 l 1
 384 672 l 1
 256 672 l 1
384 672 m 1
 384 800 l 1
 512 800 l 1
 512 672 l 1
 384 672 l 1
512 672 m 1
 512 800 l 1
 640 800 l 1
 640 672 l 1
 512 672 l 1
512 544 m 1
 512 672 l 1
 640 672 l 1
 640 544 l 1
 512 544 l 1
0 416 m 1
 0 544 l 1
 128 544 l 1
 128 416 l 1
 0 416 l 1
128 416 m 1
 128 544 l 1
 256 544 l 1
 256 416 l 1
 128 416 l 1
256 416 m 1
 256 544 l 1
 384 544 l 1
 384 416 l 1
 256 416 l 1
384 416 m 1
 384 544 l 1
 512 544 l 1
 512 416 l 1
 384 416 l 1
512 416 m 1
 512 544 l 1
 640 544 l 1
 640 416 l 1
 512 416 l 1
0 288 m 1
 0 416 l 1
 128 416 l 1
 128 288 l 1
 0 288 l 1
0 160 m 1
 0 288 l 1
 128 288 l 1
 128 160 l 1
 0 160 l 1
128 160 m 1
 128 288 l 1
 256 288 l 1
 256 160 l 1
 128 160 l 1
256 160 m 1
 256 288 l 1
 384 288 l 1
 384 160 l 1
 256 160 l 1
384 160 m 1
 384 288 l 1
 512 288 l 1
 512 160 l 1
 384 160 l 1
512 160 m 1
 512 288 l 1
 640 288 l 1
 640 160 l 1
 512 160 l 1
EndSplineSet
EndChar

StartChar: T
Encoding: 84 84 45
Width: 1000
Flags: H
LayerCount: 2
Fore
SplineSet
0 672 m 1
 0 800 l 1
 128 800 l 1
 128 672 l 1
 0 672 l 1
128 672 m 1
 128 800 l 1
 256 800 l 1
 256 672 l 1
 128 672 l 1
256 672 m 1
 256 800 l 1
 384 800 l 1
 384 672 l 1
 256 672 l 1
384 672 m 1
 384 800 l 1
 512 800 l 1
 512 672 l 1
 384 672 l 1
512 672 m 1
 512 800 l 1
 640 800 l 1
 640 672 l 1
 512 672 l 1
256 416 m 1
 256 544 l 1
 384 544 l 1
 384 416 l 1
 256 416 l 1
256 288 m 1
 256 416 l 1
 384 416 l 1
 384 288 l 1
 256 288 l 1
256 160 m 1
 256 288 l 1
 384 288 l 1
 384 160 l 1
 256 160 l 1
EndSplineSet
EndChar

StartChar: U
Encoding: 85 85 46
Width: 1000
Flags: H
LayerCount: 2
Fore
SplineSet
256 672 m 1
 256 800 l 1
 384 800 l 1
 384 672 l 1
 256 672 l 1
512 672 m 1
 512 800 l 1
 640 800 l 1
 640 672 l 1
 512 672 l 1
256 544 m 1
 256 672 l 1
 384 672 l 1
 384 544 l 1
 256 544 l 1
512 544 m 1
 512 672 l 1
 640 672 l 1
 640 544 l 1
 512 544 l 1
EndSplineSet
EndChar

StartChar: V
Encoding: 86 86 47
Width: 1000
Flags: H
LayerCount: 2
Fore
SplineSet
0 672 m 1
 0 800 l 1
 128 800 l 1
 128 672 l 1
 0 672 l 1
0 544 m 1
 0 672 l 1
 128 672 l 1
 128 544 l 1
 0 544 l 1
0 416 m 1
 0 544 l 1
 128 544 l 1
 128 416 l 1
 0 416 l 1
512 416 m 1
 512 544 l 1
 640 544 l 1
 640 416 l 1
 512 416 l 1
0 288 m 1
 0 416 l 1
 128 416 l 1
 128 288 l 1
 0 288 l 1
384 288 m 1
 384 416 l 1
 512 416 l 1
 512 288 l 1
 384 288 l 1
0 160 m 1
 0 288 l 1
 128 288 l 1
 128 160 l 1
 0 160 l 1
128 160 m 1
 128 288 l 1
 256 288 l 1
 256 160 l 1
 128 160 l 1
256 160 m 1
 256 288 l 1
 384 288 l 1
 384 160 l 1
 256 160 l 1
EndSplineSet
EndChar

StartChar: W
Encoding: 87 87 48
Width: 1000
Flags: H
LayerCount: 2
Fore
SplineSet
0 672 m 1
 0 800 l 1
 128 800 l 1
 128 672 l 1
 0 672 l 1
0 544 m 1
 0 672 l 1
 128 672 l 1
 128 544 l 1
 0 544 l 1
384 544 m 1
 384 672 l 1
 512 672 l 1
 512 544 l 1
 384 544 l 1
0 416 m 1
 0 544 l 1
 128 544 l 1
 128 416 l 1
 0 416 l 1
256 416 m 1
 256 544 l 1
 384 544 l 1
 384 416 l 1
 256 416 l 1
512 416 m 1
 512 544 l 1
 640 544 l 1
 640 416 l 1
 512 416 l 1
0 288 m 1
 0 416 l 1
 128 416 l 1
 128 288 l 1
 0 288 l 1
128 288 m 1
 128 416 l 1
 256 416 l 1
 256 288 l 1
 128 288 l 1
384 288 m 1
 384 416 l 1
 512 416 l 1
 512 288 l 1
 384 288 l 1
0 160 m 1
 0 288 l 1
 128 288 l 1
 128 160 l 1
 0 160 l 1
128 160 m 1
 128 288 l 1
 256 288 l 1
 256 160 l 1
 128 160 l 1
256 160 m 1
 256 288 l 1
 384 288 l 1
 384 160 l 1
 256 160 l 1
EndSplineSet
EndChar

StartChar: X
Encoding: 88 88 49
Width: 1000
Flags: H
LayerCount: 2
Fore
SplineSet
0 672 m 1
 0 800 l 1
 128 800 l 1
 128 672 l 1
 0 672 l 1
512 672 m 1
 512 800 l 1
 640 800 l 1
 640 672 l 1
 512 672 l 1
128 544 m 1
 128 672 l 1
 256 672 l 1
 256 544 l 1
 128 544 l 1
256 416 m 1
 256 544 l 1
 384 544 l 1
 384 416 l 1
 256 416 l 1
384 288 m 1
 384 416 l 1
 512 416 l 1
 512 288 l 1
 384 288 l 1
0 160 m 1
 0 288 l 1
 128 288 l 1
 128 160 l 1
 0 160 l 1
512 160 m 1
 512 288 l 1
 640 288 l 1
 640 160 l 1
 512 160 l 1
EndSplineSet
EndChar

StartChar: Y
Encoding: 89 89 50
Width: 1000
Flags: H
LayerCount: 2
Fore
SplineSet
0 416 m 1
 0 544 l 1
 128 544 l 1
 128 416 l 1
 0 416 l 1
128 416 m 1
 128 544 l 1
 256 544 l 1
 256 416 l 1
 128 416 l 1
256 416 m 1
 256 544 l 1
 384 544 l 1
 384 416 l 1
 256 416 l 1
384 416 m 1
 384 544 l 1
 512 544 l 1
 512 416 l 1
 384 416 l 1
512 416 m 1
 512 544 l 1
 640 544 l 1
 640 416 l 1
 512 416 l 1
512 288 m 1
 512 416 l 1
 640 416 l 1
 640 288 l 1
 512 288 l 1
EndSplineSet
EndChar

StartChar: Z
Encoding: 90 90 51
Width: 1000
Flags: H
LayerCount: 2
Fore
SplineSet
0 672 m 1
 0 800 l 1
 128 800 l 1
 128 672 l 1
 0 672 l 1
256 672 m 1
 256 800 l 1
 384 800 l 1
 384 672 l 1
 256 672 l 1
512 672 m 1
 512 800 l 1
 640 800 l 1
 640 672 l 1
 512 672 l 1
0 544 m 1
 0 672 l 1
 128 672 l 1
 128 544 l 1
 0 544 l 1
256 544 m 1
 256 672 l 1
 384 672 l 1
 384 544 l 1
 256 544 l 1
512 544 m 1
 512 672 l 1
 640 672 l 1
 640 544 l 1
 512 544 l 1
0 416 m 1
 0 544 l 1
 128 544 l 1
 128 416 l 1
 0 416 l 1
512 416 m 1
 512 544 l 1
 640 544 l 1
 640 416 l 1
 512 416 l 1
0 288 m 1
 0 416 l 1
 128 416 l 1
 128 288 l 1
 0 288 l 1
256 288 m 1
 256 416 l 1
 384 416 l 1
 384 288 l 1
 256 288 l 1
512 288 m 1
 512 416 l 1
 640 416 l 1
 640 288 l 1
 512 288 l 1
0 160 m 1
 0 288 l 1
 128 288 l 1
 128 160 l 1
 0 160 l 1
256 160 m 1
 256 288 l 1
 384 288 l 1
 384 160 l 1
 256 160 l 1
512 160 m 1
 512 288 l 1
 640 288 l 1
 640 160 l 1
 512 160 l 1
EndSplineSet
EndChar

StartChar: zero
Encoding: 48 48 52
Width: 1000
Flags: H
LayerCount: 2
Fore
SplineSet
0 672 m 1
 0 800 l 1
 128 800 l 1
 128 672 l 1
 0 672 l 1
128 672 m 1
 128 800 l 1
 256 800 l 1
 256 672 l 1
 128 672 l 1
256 672 m 1
 256 800 l 1
 384 800 l 1
 384 672 l 1
 256 672 l 1
384 672 m 1
 384 800 l 1
 512 800 l 1
 512 672 l 1
 384 672 l 1
512 672 m 1
 512 800 l 1
 640 800 l 1
 640 672 l 1
 512 672 l 1
0 544 m 1
 0 672 l 1
 128 672 l 1
 128 544 l 1
 0 544 l 1
512 544 m 1
 512 672 l 1
 640 672 l 1
 640 544 l 1
 512 544 l 1
0 288 m 1
 0 416 l 1
 128 416 l 1
 128 288 l 1
 0 288 l 1
512 288 m 1
 512 416 l 1
 640 416 l 1
 640 288 l 1
 512 288 l 1
0 160 m 1
 0 288 l 1
 128 288 l 1
 128 160 l 1
 0 160 l 1
128 160 m 1
 128 288 l 1
 256 288 l 1
 256 160 l 1
 128 160 l 1
256 160 m 1
 256 288 l 1
 384 288 l 1
 384 160 l 1
 256 160 l 1
384 160 m 1
 384 288 l 1
 512 288 l 1
 512 160 l 1
 384 160 l 1
512 160 m 1
 512 288 l 1
 640 288 l 1
 640 160 l 1
 512 160 l 1
EndSplineSet
EndChar

StartChar: one
Encoding: 49 49 53
Width: 1000
Flags: H
LayerCount: 2
Fore
SplineSet
128 672 m 1
 128 800 l 1
 256 800 l 1
 256 672 l 1
 128 672 l 1
256 672 m 1
 256 800 l 1
 384 800 l 1
 384 672 l 1
 256 672 l 1
512 672 m 1
 512 800 l 1
 640 800 l 1
 640 672 l 1
 512 672 l 1
512 544 m 1
 512 672 l 1
 640 672 l 1
 640 544 l 1
 512 544 l 1
512 416 m 1
 512 544 l 1
 640 544 l 1
 640 416 l 1
 512 416 l 1
512 288 m 1
 512 416 l 1
 640 416 l 1
 640 288 l 1
 512 288 l 1
512 160 m 1
 512 288 l 1
 640 288 l 1
 640 160 l 1
 512 160 l 1
EndSplineSet
EndChar

StartChar: two
Encoding: 50 50 54
Width: 1000
Flags: H
LayerCount: 2
Fore
SplineSet
0 672 m 1
 0 800 l 1
 128 800 l 1
 128 672 l 1
 0 672 l 1
128 672 m 1
 128 800 l 1
 256 800 l 1
 256 672 l 1
 128 672 l 1
256 672 m 1
 256 800 l 1
 384 800 l 1
 384 672 l 1
 256 672 l 1
384 672 m 1
 384 800 l 1
 512 800 l 1
 512 672 l 1
 384 672 l 1
512 672 m 1
 512 800 l 1
 640 800 l 1
 640 672 l 1
 512 672 l 1
512 544 m 1
 512 672 l 1
 640 672 l 1
 640 544 l 1
 512 544 l 1
0 416 m 1
 0 544 l 1
 128 544 l 1
 128 416 l 1
 0 416 l 1
256 416 m 1
 256 544 l 1
 384 544 l 1
 384 416 l 1
 256 416 l 1
512 416 m 1
 512 544 l 1
 640 544 l 1
 640 416 l 1
 512 416 l 1
0 288 m 1
 0 416 l 1
 128 416 l 1
 128 288 l 1
 0 288 l 1
0 160 m 1
 0 288 l 1
 128 288 l 1
 128 160 l 1
 0 160 l 1
128 160 m 1
 128 288 l 1
 256 288 l 1
 256 160 l 1
 128 160 l 1
256 160 m 1
 256 288 l 1
 384 288 l 1
 384 160 l 1
 256 160 l 1
384 160 m 1
 384 288 l 1
 512 288 l 1
 512 160 l 1
 384 160 l 1
512 160 m 1
 512 288 l 1
 640 288 l 1
 640 160 l 1
 512 160 l 1
EndSplineSet
EndChar

StartChar: three
Encoding: 51 51 55
Width: 1000
Flags: H
LayerCount: 2
Fore
SplineSet
0 672 m 1
 0 800 l 1
 128 800 l 1
 128 672 l 1
 0 672 l 1
128 672 m 1
 128 800 l 1
 256 800 l 1
 256 672 l 1
 128 672 l 1
256 672 m 1
 256 800 l 1
 384 800 l 1
 384 672 l 1
 256 672 l 1
384 672 m 1
 384 800 l 1
 512 800 l 1
 512 672 l 1
 384 672 l 1
512 672 m 1
 512 800 l 1
 640 800 l 1
 640 672 l 1
 512 672 l 1
512 544 m 1
 512 672 l 1
 640 672 l 1
 640 544 l 1
 512 544 l 1
0 416 m 1
 0 544 l 1
 128 544 l 1
 128 416 l 1
 0 416 l 1
128 416 m 1
 128 544 l 1
 256 544 l 1
 256 416 l 1
 128 416 l 1
256 416 m 1
 256 544 l 1
 384 544 l 1
 384 416 l 1
 256 416 l 1
512 416 m 1
 512 544 l 1
 640 544 l 1
 640 416 l 1
 512 416 l 1
512 288 m 1
 512 416 l 1
 640 416 l 1
 640 288 l 1
 512 288 l 1
0 160 m 1
 0 288 l 1
 128 288 l 1
 128 160 l 1
 0 160 l 1
128 160 m 1
 128 288 l 1
 256 288 l 1
 256 160 l 1
 128 160 l 1
256 160 m 1
 256 288 l 1
 384 288 l 1
 384 160 l 1
 256 160 l 1
384 160 m 1
 384 288 l 1
 512 288 l 1
 512 160 l 1
 384 160 l 1
512 160 m 1
 512 288 l 1
 640 288 l 1
 640 160 l 1
 512 160 l 1
EndSplineSet
EndChar

StartChar: four
Encoding: 52 52 56
Width: 1000
Flags: H
LayerCount: 2
Fore
SplineSet
0 672 m 1
 0 800 l 1
 128 800 l 1
 128 672 l 1
 0 672 l 1
512 672 m 1
 512 800 l 1
 640 800 l 1
 640 672 l 1
 512 672 l 1
0 544 m 1
 0 672 l 1
 128 672 l 1
 128 544 l 1
 0 544 l 1
512 544 m 1
 512 672 l 1
 640 672 l 1
 640 544 l 1
 512 544 l 1
0 416 m 1
 0 544 l 1
 128 544 l 1
 128 416 l 1
 0 416 l 1
256 416 m 1
 256 544 l 1
 384 544 l 1
 384 416 l 1
 256 416 l 1
512 416 m 1
 512 544 l 1
 640 544 l 1
 640 416 l 1
 512 416 l 1
512 288 m 1
 512 416 l 1
 640 416 l 1
 640 288 l 1
 512 288 l 1
512 160 m 1
 512 288 l 1
 640 288 l 1
 640 160 l 1
 512 160 l 1
EndSplineSet
EndChar

StartChar: five
Encoding: 53 53 57
Width: 1000
Flags: H
LayerCount: 2
Fore
SplineSet
0 672 m 1
 0 800 l 1
 128 800 l 1
 128 672 l 1
 0 672 l 1
128 672 m 1
 128 800 l 1
 256 800 l 1
 256 672 l 1
 128 672 l 1
256 672 m 1
 256 800 l 1
 384 800 l 1
 384 672 l 1
 256 672 l 1
384 672 m 1
 384 800 l 1
 512 800 l 1
 512 672 l 1
 384 672 l 1
512 672 m 1
 512 800 l 1
 640 800 l 1
 640 672 l 1
 512 672 l 1
0 544 m 1
 0 672 l 1
 128 672 l 1
 128 544 l 1
 0 544 l 1
0 416 m 1
 0 544 l 1
 128 544 l 1
 128 416 l 1
 0 416 l 1
256 416 m 1
 256 544 l 1
 384 544 l 1
 384 416 l 1
 256 416 l 1
512 416 m 1
 512 544 l 1
 640 544 l 1
 640 416 l 1
 512 416 l 1
512 288 m 1
 512 416 l 1
 640 416 l 1
 640 288 l 1
 512 288 l 1
0 160 m 1
 0 288 l 1
 128 288 l 1
 128 160 l 1
 0 160 l 1
128 160 m 1
 128 288 l 1
 256 288 l 1
 256 160 l 1
 128 160 l 1
256 160 m 1
 256 288 l 1
 384 288 l 1
 384 160 l 1
 256 160 l 1
384 160 m 1
 384 288 l 1
 512 288 l 1
 512 160 l 1
 384 160 l 1
512 160 m 1
 512 288 l 1
 640 288 l 1
 640 160 l 1
 512 160 l 1
EndSplineSet
EndChar

StartChar: six
Encoding: 54 54 58
Width: 1000
Flags: H
LayerCount: 2
Fore
SplineSet
0 672 m 1
 0 800 l 1
 128 800 l 1
 128 672 l 1
 0 672 l 1
128 672 m 1
 128 800 l 1
 256 800 l 1
 256 672 l 1
 128 672 l 1
256 672 m 1
 256 800 l 1
 384 800 l 1
 384 672 l 1
 256 672 l 1
384 672 m 1
 384 800 l 1
 512 800 l 1
 512 672 l 1
 384 672 l 1
512 672 m 1
 512 800 l 1
 640 800 l 1
 640 672 l 1
 512 672 l 1
0 544 m 1
 0 672 l 1
 128 672 l 1
 128 544 l 1
 0 544 l 1
0 416 m 1
 0 544 l 1
 128 544 l 1
 128 416 l 1
 0 416 l 1
256 416 m 1
 256 544 l 1
 384 544 l 1
 384 416 l 1
 256 416 l 1
512 416 m 1
 512 544 l 1
 640 544 l 1
 640 416 l 1
 512 416 l 1
0 288 m 1
 0 416 l 1
 128 416 l 1
 128 288 l 1
 0 288 l 1
512 288 m 1
 512 416 l 1
 640 416 l 1
 640 288 l 1
 512 288 l 1
0 160 m 1
 0 288 l 1
 128 288 l 1
 128 160 l 1
 0 160 l 1
128 160 m 1
 128 288 l 1
 256 288 l 1
 256 160 l 1
 128 160 l 1
256 160 m 1
 256 288 l 1
 384 288 l 1
 384 160 l 1
 256 160 l 1
384 160 m 1
 384 288 l 1
 512 288 l 1
 512 160 l 1
 384 160 l 1
512 160 m 1
 512 288 l 1
 640 288 l 1
 640 160 l 1
 512 160 l 1
EndSplineSet
EndChar

StartChar: seven
Encoding: 55 55 59
Width: 1000
Flags: H
LayerCount: 2
Fore
SplineSet
0 672 m 1
 0 800 l 1
 128 800 l 1
 128 672 l 1
 0 672 l 1
128 672 m 1
 128 800 l 1
 256 800 l 1
 256 672 l 1
 128 672 l 1
384 672 m 1
 384 800 l 1
 512 800 l 1
 512 672 l 1
 384 672 l 1
512 672 m 1
 512 800 l 1
 640 800 l 1
 640 672 l 1
 512 672 l 1
384 544 m 1
 384 672 l 1
 512 672 l 1
 512 544 l 1
 384 544 l 1
512 544 m 1
 512 672 l 1
 640 672 l 1
 640 544 l 1
 512 544 l 1
512 288 m 1
 512 416 l 1
 640 416 l 1
 640 288 l 1
 512 288 l 1
512 160 m 1
 512 288 l 1
 640 288 l 1
 640 160 l 1
 512 160 l 1
EndSplineSet
EndChar

StartChar: eight
Encoding: 56 56 60
Width: 1000
Flags: H
LayerCount: 2
Fore
SplineSet
0 672 m 1
 0 800 l 1
 128 800 l 1
 128 672 l 1
 0 672 l 1
128 672 m 1
 128 800 l 1
 256 800 l 1
 256 672 l 1
 128 672 l 1
256 672 m 1
 256 800 l 1
 384 800 l 1
 384 672 l 1
 256 672 l 1
384 672 m 1
 384 800 l 1
 512 800 l 1
 512 672 l 1
 384 672 l 1
512 672 m 1
 512 800 l 1
 640 800 l 1
 640 672 l 1
 512 672 l 1
0 544 m 1
 0 672 l 1
 128 672 l 1
 128 544 l 1
 0 544 l 1
512 544 m 1
 512 672 l 1
 640 672 l 1
 640 544 l 1
 512 544 l 1
256 416 m 1
 256 544 l 1
 384 544 l 1
 384 416 l 1
 256 416 l 1
0 288 m 1
 0 416 l 1
 128 416 l 1
 128 288 l 1
 0 288 l 1
512 288 m 1
 512 416 l 1
 640 416 l 1
 640 288 l 1
 512 288 l 1
0 160 m 1
 0 288 l 1
 128 288 l 1
 128 160 l 1
 0 160 l 1
128 160 m 1
 128 288 l 1
 256 288 l 1
 256 160 l 1
 128 160 l 1
256 160 m 1
 256 288 l 1
 384 288 l 1
 384 160 l 1
 256 160 l 1
384 160 m 1
 384 288 l 1
 512 288 l 1
 512 160 l 1
 384 160 l 1
512 160 m 1
 512 288 l 1
 640 288 l 1
 640 160 l 1
 512 160 l 1
EndSplineSet
EndChar

StartChar: nine
Encoding: 57 57 61
Width: 1000
Flags: H
LayerCount: 2
Fore
SplineSet
0 672 m 1
 0 800 l 1
 128 800 l 1
 128 672 l 1
 0 672 l 1
128 672 m 1
 128 800 l 1
 256 800 l 1
 256 672 l 1
 128 672 l 1
256 672 m 1
 256 800 l 1
 384 800 l 1
 384 672 l 1
 256 672 l 1
384 672 m 1
 384 800 l 1
 512 800 l 1
 512 672 l 1
 384 672 l 1
512 672 m 1
 512 800 l 1
 640 800 l 1
 640 672 l 1
 512 672 l 1
0 544 m 1
 0 672 l 1
 128 672 l 1
 128 544 l 1
 0 544 l 1
512 544 m 1
 512 672 l 1
 640 672 l 1
 640 544 l 1
 512 544 l 1
0 416 m 1
 0 544 l 1
 128 544 l 1
 128 416 l 1
 0 416 l 1
256 416 m 1
 256 544 l 1
 384 544 l 1
 384 416 l 1
 256 416 l 1
512 416 m 1
 512 544 l 1
 640 544 l 1
 640 416 l 1
 512 416 l 1
512 288 m 1
 512 416 l 1
 640 416 l 1
 640 288 l 1
 512 288 l 1
512 160 m 1
 512 288 l 1
 640 288 l 1
 640 160 l 1
 512 160 l 1
EndSplineSet
EndChar

StartChar: exclam
Encoding: 33 33 62
Width: 1000
Flags: H
LayerCount: 2
Fore
SplineSet
256 672 m 1
 256 800 l 1
 384 800 l 1
 384 672 l 1
 256 672 l 1
256 544 m 1
 256 672 l 1
 384 672 l 1
 384 544 l 1
 256 544 l 1
256 416 m 1
 256 544 l 1
 384 544 l 1
 384 416 l 1
 256 416 l 1
256 160 m 1
 256 288 l 1
 384 288 l 1
 384 160 l 1
 256 160 l 1
EndSplineSet
EndChar

StartChar: question
Encoding: 63 63 63
Width: 1000
Flags: H
LayerCount: 2
Fore
SplineSet
128 672 m 1
 128 800 l 1
 256 800 l 1
 256 672 l 1
 128 672 l 1
256 672 m 1
 256 800 l 1
 384 800 l 1
 384 672 l 1
 256 672 l 1
384 672 m 1
 384 800 l 1
 512 800 l 1
 512 672 l 1
 384 672 l 1
384 544 m 1
 384 672 l 1
 512 672 l 1
 512 544 l 1
 384 544 l 1
256 416 m 1
 256 544 l 1
 384 544 l 1
 384 416 l 1
 256 416 l 1
384 416 m 1
 384 544 l 1
 512 544 l 1
 512 416 l 1
 384 416 l 1
256 160 m 1
 256 288 l 1
 384 288 l 1
 384 160 l 1
 256 160 l 1
EndSplineSet
EndChar

StartChar: period
Encoding: 46 46 64
Width: 1000
Flags: H
LayerCount: 2
Fore
SplineSet
256 160 m 1
 256 288 l 1
 384 288 l 1
 384 160 l 1
 256 160 l 1
EndSplineSet
EndChar

StartChar: comma
Encoding: 44 44 65
Width: 1000
Flags: H
LayerCount: 2
Fore
SplineSet
256 288 m 1
 256 416 l 1
 384 416 l 1
 384 288 l 1
 256 288 l 1
128 160 m 1
 128 288 l 1
 256 288 l 1
 256 160 l 1
 128 160 l 1
EndSplineSet
EndChar

StartChar: semicolon
Encoding: 59 59 66
Width: 1000
Flags: H
LayerCount: 2
Fore
SplineSet
256 672 m 1
 256 800 l 1
 384 800 l 1
 384 672 l 1
 256 672 l 1
256 544 m 1
 256 672 l 1
 384 672 l 1
 384 544 l 1
 256 544 l 1
256 288 m 1
 256 416 l 1
 384 416 l 1
 384 288 l 1
 256 288 l 1
128 160 m 1
 128 288 l 1
 256 288 l 1
 256 160 l 1
 128 160 l 1
EndSplineSet
EndChar

StartChar: slash
Encoding: 47 47 67
Width: 1000
Flags: H
LayerCount: 2
Fore
SplineSet
384 672 m 1
 384 800 l 1
 512 800 l 1
 512 672 l 1
 384 672 l 1
384 544 m 1
 384 672 l 1
 512 672 l 1
 512 544 l 1
 384 544 l 1
256 416 m 1
 256 544 l 1
 384 544 l 1
 384 416 l 1
 256 416 l 1
128 288 m 1
 128 416 l 1
 256 416 l 1
 256 288 l 1
 128 288 l 1
128 160 m 1
 128 288 l 1
 256 288 l 1
 256 160 l 1
 128 160 l 1
EndSplineSet
EndChar

StartChar: less
Encoding: 60 60 68
Width: 1000
Flags: H
LayerCount: 2
Fore
SplineSet
384 672 m 1
 384 800 l 1
 512 800 l 1
 512 672 l 1
 384 672 l 1
256 544 m 1
 256 672 l 1
 384 672 l 1
 384 544 l 1
 256 544 l 1
128 416 m 1
 128 544 l 1
 256 544 l 1
 256 416 l 1
 128 416 l 1
256 288 m 1
 256 416 l 1
 384 416 l 1
 384 288 l 1
 256 288 l 1
384 160 m 1
 384 288 l 1
 512 288 l 1
 512 160 l 1
 384 160 l 1
EndSplineSet
EndChar

StartChar: greater
Encoding: 62 62 69
Width: 1000
Flags: H
LayerCount: 2
Fore
SplineSet
128 672 m 1
 128 800 l 1
 256 800 l 1
 256 672 l 1
 128 672 l 1
256 544 m 1
 256 672 l 1
 384 672 l 1
 384 544 l 1
 256 544 l 1
384 416 m 1
 384 544 l 1
 512 544 l 1
 512 416 l 1
 384 416 l 1
256 288 m 1
 256 416 l 1
 384 416 l 1
 384 288 l 1
 256 288 l 1
128 160 m 1
 128 288 l 1
 256 288 l 1
 256 160 l 1
 128 160 l 1
EndSplineSet
EndChar

